<?xml version="1.0" standalone="no"?>
<!DOCTYPE svg PUBLIC "-//W3C//DTD SVG 20010904//EN"
 "http://www.w3.org/TR/2001/REC-SVG-20010904/DTD/svg10.dtd">
<svg version="1.0" xmlns="http://www.w3.org/2000/svg"
 width="500.000000pt" height="500.000000pt" viewBox="0 0 500.000000 500.000000"
 preserveAspectRatio="xMidYMid meet">
<metadata>
Created by potrace 1.11, written by Peter Selinger 2001-2013
</metadata>
<g transform="translate(0.000000,500.000000) scale(0.100000,-0.100000)"
fill="#000000" stroke="none">
<path d="M2330 4633 c-296 -47 -498 -143 -679 -322 -216 -214 -331 -492 -331
-796 l0 -103 -94 -274 c-51 -150 -98 -295 -105 -323 -6 -27 -23 -72 -36 -98
-14 -27 -25 -53 -25 -58 0 -5 66 -9 148 -9 l149 0 11 -37 c6 -21 11 -74 12
-118 0 -44 7 -152 16 -240 9 -88 18 -188 21 -222 l5 -61 31 4 c18 2 118 13
222 24 105 11 202 23 216 26 23 5 27 2 33 -26 3 -18 6 -51 6 -74 0 -39 37
-350 44 -371 2 -5 25 -9 52 -7 l49 4 -6 96 c-9 128 -37 346 -49 378 -6 14 -10
45 -10 70 0 39 -3 44 -22 44 -24 -1 -346 -35 -430 -46 l-48 -7 0 79 c-1 44 -8
149 -17 234 -9 85 -18 201 -20 258 l-4 102 -125 0 c-90 0 -124 3 -124 12 0 7
11 46 25 88 13 41 34 111 47 154 12 43 27 84 33 90 6 6 32 72 57 146 l46 135
4 170 c4 167 5 172 40 260 106 271 228 425 441 559 48 30 120 66 160 81 40 14
85 33 101 42 23 13 157 30 259 32 14 1 17 10 17 56 l0 55 -47 -1 c-27 -1 -59
-4 -73 -6z"/>
<path d="M2560 4585 l0 -55 55 0 55 0 0 55 0 55 -55 0 -55 0 0 -55z"/>
<path d="M2780 4590 l0 -50 50 0 50 0 0 50 0 50 -50 0 -50 0 0 -50z"/>
<path d="M2564 4340 c3 -44 3 -147 0 -230 l-7 -150 -52 0 -52 0 -7 77 c-3 42
-6 96 -6 120 l0 43 -50 0 -50 0 0 -120 0 -120 -60 0 -59 0 -3 -62 -3 -63 -117
3 -118 3 0 -50 0 -49 120 -7 120 -7 0 -53 0 -52 -151 -6 c-83 -4 -189 -4 -235
-1 l-84 7 0 -50 0 -50 107 -6 c58 -4 164 -7 235 -7 l129 0 -3 -52 -3 -53 -222
-5 c-122 -3 -224 -8 -227 -11 -3 -3 -9 -27 -13 -54 l-6 -48 234 4 234 4 3 -57
3 -58 -121 0 -120 0 0 -55 0 -55 120 0 120 0 0 -60 0 -60 60 0 60 0 0 -158 0
-158 -65 -64 -66 -65 3 -85 3 -85 53 -3 52 -3 0 63 0 64 65 64 65 64 0 183 0
183 55 0 55 0 3 -407 c1 -225 0 -490 -2 -591 l-3 -182 56 0 56 0 -4 498 c-1
273 -1 539 2 590 l5 92 52 0 c49 0 53 -2 57 -27 3 -16 4 -331 2 -700 l-2 -673
54 0 54 0 0 700 0 700 55 0 54 0 3 -117 3 -118 55 0 55 0 0 118 0 117 57 0 57
0 3 58 3 57 123 3 122 3 0 54 0 55 -119 0 c-66 0 -122 3 -124 8 -2 4 -2 28 1
55 l4 47 229 0 229 0 0 57 0 56 -197 -6 c-109 -4 -214 -3 -233 1 -34 8 -35 9
-35 57 l0 50 90 6 c50 4 154 4 233 1 l142 -5 0 56 0 57 -42 -5 c-24 -3 -128
-2 -233 2 l-190 8 0 50 0 50 123 3 122 3 0 56 0 56 -126 -7 -126 -7 2 33 c1
18 2 48 1 66 l-1 32 -55 0 -55 0 0 88 c0 49 -3 130 -7 181 l-6 92 186 -7 187
-7 0 54 0 54 -242 2 -241 2 7 -165 c3 -91 3 -194 0 -229 l-7 -65 -53 0 -54 0
0 231 0 232 -47 -7 c-25 -3 -49 -9 -52 -12 -3 -3 -7 -104 -9 -225 l-3 -219
-55 0 -54 0 0 123 c0 68 -3 172 -7 230 l-6 107 -50 0 -50 0 7 -80z m-4 -660
l0 -60 -60 0 -60 0 0 60 0 60 60 0 60 0 0 -60z m230 0 l0 -61 -62 3 -63 3 -3
44 c-5 66 -1 71 68 71 l60 0 0 -60z m220 0 l0 -60 -60 0 -60 0 0 60 0 60 60 0
60 0 0 -60z m-452 -222 l3 -58 -61 0 -60 0 0 60 0 61 58 -3 57 -3 3 -57z m230
0 l3 -58 -66 0 -65 0 0 53 c0 30 3 57 7 61 4 4 32 6 63 4 l55 -3 3 -57z m222
2 l0 -60 -60 0 -60 0 0 53 c0 30 3 57 7 60 3 4 30 7 60 7 l53 0 0 -60z m-450
-230 l0 -60 -60 0 -60 0 0 60 0 60 60 0 60 0 0 -60z m230 0 l0 -60 -59 0 c-33
0 -62 3 -64 8 -2 4 -2 31 1 60 l4 52 59 0 59 0 0 -60z m220 0 l0 -60 -60 0
-60 0 0 60 0 60 60 0 60 0 0 -60z"/>
<path d="M1530 3565 l0 -55 55 0 55 0 0 55 0 55 -55 0 -55 0 0 -55z"/>
<path d="M3820 3565 l0 -55 50 0 50 0 0 55 0 55 -50 0 -50 0 0 -55z"/>
<path d="M1530 3351 l0 -51 56 0 55 0 -3 48 -3 47 -52 3 -53 3 0 -50z"/>
<path d="M3815 3356 c-4 -25 -4 -49 0 -55 3 -6 28 -11 56 -11 l49 0 0 55 0 55
-49 0 -50 0 -6 -44z"/>
<path d="M3362 2843 l0 -108 -92 -264 c-82 -235 -91 -266 -80 -290 6 -14 14
-55 16 -91 6 -92 46 -364 55 -370 4 -3 11 -45 15 -93 l7 -87 41 6 c70 10 68 8
60 71 -3 32 -10 63 -14 68 -5 6 -11 44 -15 85 -8 96 -42 331 -56 392 -10 43
-8 57 21 142 17 52 35 96 39 98 4 2 33 78 64 170 55 161 57 170 57 272 l0 106
-59 0 -58 0 -1 -107z"/>
<path d="M2560 1605 l0 -55 55 0 55 0 0 55 0 55 -55 0 -55 0 0 -55z"/>
<path d="M1167 1103 c-4 -3 -7 -22 -7 -41 l0 -34 29 31 c18 19 39 31 55 31
l26 0 0 -95 0 -95 -30 0 c-16 0 -30 -3 -30 -7 0 -5 54 -8 120 -8 66 0 120 3
120 7 0 4 -12 8 -27 10 l-28 3 -3 93 c-3 85 -1 92 16 92 26 0 72 -37 72 -58 0
-12 3 -13 11 -5 7 7 9 25 5 47 l-7 36 -158 0 c-87 0 -161 -3 -164 -7z"/>
<path d="M1565 1100 c3 -5 15 -10 26 -10 17 0 19 -8 19 -93 0 -92 0 -93 -27
-103 -20 -7 -3 -9 69 -9 86 0 95 2 83 15 -8 9 -12 29 -10 45 2 17 4 33 4 38 1
4 12 7 26 7 23 0 25 -4 25 -43 0 -24 -4 -47 -9 -53 -6 -5 25 -9 84 -9 85 0
112 7 60 17 -18 3 -20 11 -20 93 0 82 2 90 20 93 11 2 24 8 30 13 5 5 -30 9
-88 9 -58 0 -97 -4 -97 -10 0 -5 5 -10 10 -10 6 0 10 -18 10 -41 0 -38 -1 -40
-27 -37 -22 2 -29 9 -31 32 -2 16 1 33 7 39 22 22 9 27 -80 27 -57 0 -88 -4
-84 -10z"/>
<path d="M2038 1098 l32 -11 0 -88 c0 -88 0 -89 -25 -89 -14 0 -25 -6 -25 -12
0 -10 34 -13 134 -13 147 0 145 -1 146 61 0 19 -3 18 -36 -12 -19 -19 -44 -34
-55 -34 -16 0 -19 7 -19 55 0 30 4 55 8 55 13 0 39 -23 45 -40 3 -8 6 0 6 18
1 29 -2 32 -29 32 -28 0 -30 3 -30 35 0 31 3 35 25 35 15 0 36 -11 50 -26 l25
-27 0 37 0 36 -142 -1 c-115 -1 -137 -3 -110 -11z"/>
<path d="M2540 1100 c0 -5 11 -10 25 -10 25 0 25 0 25 -95 l0 -95 -30 0 c-16
0 -30 -3 -30 -7 0 -5 63 -8 139 -8 l140 0 5 29 c3 16 6 38 6 50 l-1 21 -12
-22 c-17 -31 -62 -63 -87 -63 -20 0 -22 4 -16 31 3 17 6 59 6 93 0 58 2 63 28
73 22 9 6 11 -85 12 -70 1 -113 -3 -113 -9z"/>
<path d="M2964 1099 c-51 -15 -79 -53 -78 -107 1 -37 6 -50 31 -73 39 -34 98
-45 162 -29 65 15 94 47 95 104 1 56 -27 89 -89 105 -51 13 -78 13 -121 0z
m90 -25 c9 -24 7 -147 -3 -163 -5 -8 -16 -11 -24 -8 -26 10 -34 140 -10 180 8
13 31 8 37 -9z"/>
<path d="M3260 1101 c0 -5 10 -11 23 -13 21 -3 22 -8 25 -95 3 -88 2 -93 -18
-93 -11 0 -20 -3 -20 -7 0 -5 27 -8 60 -8 33 0 60 3 60 8 0 4 -7 7 -15 7 -20
0 -47 44 -43 70 3 18 11 15 77 -35 40 -31 75 -55 76 -53 2 2 5 48 8 103 4 93
5 100 25 103 47 7 19 22 -40 22 l-63 -1 28 -20 c15 -11 27 -27 27 -35 0 -20
-4 -18 -56 21 -39 30 -53 35 -100 35 -30 0 -54 -4 -54 -9z"/>
<path d="M3618 1098 l32 -11 0 -88 c0 -88 0 -89 -25 -89 -14 0 -25 -6 -25 -12
0 -10 34 -13 134 -13 147 0 145 -1 146 61 0 19 -3 18 -36 -12 -19 -19 -44 -34
-55 -34 -16 0 -19 7 -19 55 0 30 4 55 8 55 13 0 39 -23 45 -40 3 -8 6 0 6 18
1 29 -2 32 -29 32 -28 0 -30 3 -30 35 0 31 3 35 25 35 15 0 36 -11 50 -26 l25
-27 0 37 0 36 -142 -1 c-115 -1 -137 -3 -110 -11z"/>
<path d="M2525 718 c-20 -24 -50 -69 -66 -101 -26 -50 -33 -57 -52 -52 -19 5
-18 3 8 -21 l30 -28 3 33 c3 32 4 32 50 29 35 -2 48 -7 50 -20 2 -11 -3 -18
-12 -18 -9 0 -16 -3 -16 -7 0 -5 45 -8 100 -8 55 0 100 3 100 7 0 4 -10 8 -22
10 -17 2 -27 17 -44 65 -19 53 -77 153 -89 153 -2 0 -20 -19 -40 -42z m-9 -85
c21 -28 16 -40 -16 -41 -32 -1 -36 8 -20 39 13 24 19 24 36 2z"/>
<path d="M490 740 c0 -5 11 -10 25 -10 25 0 25 0 25 -95 0 -87 -2 -95 -19 -95
-11 0 -22 -3 -24 -7 -3 -5 44 -8 103 -8 59 0 106 3 103 8 -2 4 -13 7 -24 7
-15 0 -19 7 -19 34 0 29 4 35 28 41 64 16 84 77 36 114 -23 18 -41 21 -130 21
-63 0 -104 -4 -104 -10z m211 -34 c15 -33 4 -76 -20 -76 -18 0 -31 34 -31 81
0 28 38 24 51 -5z"/>
<path d="M840 740 c0 -5 11 -10 25 -10 l26 0 -3 -92 c-3 -84 -5 -93 -23 -96
-53 -10 -24 -17 70 -17 56 0 101 3 98 8 -2 4 -11 7 -19 7 -10 0 -14 12 -14 45
0 25 4 45 9 45 18 0 40 -31 51 -68 10 -37 10 -37 65 -38 30 0 55 0 55 2 0 1
-25 27 -55 58 -53 53 -55 57 -41 78 21 34 5 65 -41 77 -49 14 -203 14 -203 1z
m202 -27 c10 -9 18 -27 18 -40 0 -19 -5 -23 -30 -23 -28 0 -30 2 -30 40 0 43
12 50 42 23z"/>
<path d="M1314 739 c-51 -15 -79 -53 -78 -107 1 -37 6 -50 31 -73 57 -50 184
-47 234 8 33 34 33 102 1 136 -37 39 -121 56 -188 36z m90 -25 c9 -24 7 -147
-3 -163 -5 -8 -16 -11 -24 -8 -26 10 -34 140 -10 180 8 13 31 8 37 -9z"/>
<path d="M1700 739 c-52 -15 -80 -51 -80 -105 0 -34 6 -51 24 -69 36 -36 99
-50 163 -35 60 13 78 30 69 66 -5 20 -3 27 14 31 11 3 20 10 20 15 0 6 -10 8
-22 4 -13 -3 -44 -6 -70 -6 -27 0 -48 -4 -48 -10 0 -5 6 -10 14 -10 18 0 30
-33 21 -60 -9 -28 -34 -25 -45 6 -11 28 -13 123 -4 148 12 30 44 18 63 -23
l17 -40 14 37 c7 20 14 42 16 47 5 13 -120 16 -166 4z"/>
<path d="M1990 740 c0 -5 11 -10 25 -10 l26 0 -3 -92 c-3 -84 -5 -93 -23 -96
-53 -10 -24 -17 70 -17 56 0 101 3 98 8 -2 4 -11 7 -19 7 -10 0 -14 12 -14 45
0 25 4 45 9 45 18 0 40 -31 51 -68 10 -37 10 -37 65 -38 30 0 55 0 55 2 0 1
-25 27 -55 58 -53 53 -55 57 -41 78 21 34 5 65 -41 77 -49 14 -203 14 -203 1z
m202 -27 c10 -9 18 -27 18 -40 0 -19 -5 -23 -30 -23 -28 0 -30 2 -30 40 0 43
12 50 42 23z"/>
<path d="M2780 740 c0 -5 9 -10 20 -10 30 0 42 -43 34 -118 -6 -54 -10 -65
-30 -72 -13 -5 -24 -11 -24 -12 0 -2 29 -3 65 -3 69 0 78 4 43 20 -24 11 -47
60 -34 72 5 5 29 -16 55 -45 l46 -52 38 50 c42 56 57 57 57 4 0 -27 -4 -34
-19 -34 -11 0 -22 -3 -24 -7 -3 -5 44 -8 103 -8 59 0 106 3 103 8 -2 4 -13 7
-24 7 -17 0 -19 8 -21 70 -1 39 -2 80 -2 92 -1 15 6 24 19 26 46 9 36 22 -16
22 -61 0 -69 -4 -123 -73 l-39 -49 -26 34 c-61 80 -75 88 -140 88 -34 0 -61
-4 -61 -10z"/>
<path d="M3280 740 c0 -5 11 -10 24 -10 30 0 36 -16 36 -88 0 -70 -8 -102 -26
-102 -7 0 -15 -3 -17 -7 -3 -5 24 -8 59 -8 l64 0 -30 23 c-19 15 -30 33 -30
48 0 13 3 24 6 24 3 0 26 -21 50 -47 l44 -48 20 23 c11 13 28 36 39 50 23 32
28 29 33 -18 2 -28 -1 -35 -17 -38 -54 -10 -23 -17 81 -17 102 0 112 1 85 13
l-31 12 0 90 c0 89 0 90 25 90 14 0 25 5 25 10 0 6 -25 10 -55 10 l-55 0 -47
-60 -47 -61 -54 61 -54 60 -64 0 c-36 0 -64 -4 -64 -10z"/>
<path d="M3807 734 l33 -14 -3 -82 c-2 -78 -3 -82 -26 -88 -14 -3 -26 -10 -28
-15 -2 -6 50 -10 134 -10 137 1 137 1 144 25 17 59 11 64 -31 26 -22 -20 -50
-36 -61 -36 -20 0 -21 4 -17 50 3 28 8 53 12 57 3 3 17 -4 31 -17 l25 -23 0
26 c0 22 -5 26 -32 29 -29 3 -33 7 -36 36 -3 29 -1 32 23 32 14 0 37 -11 50
-24 l25 -25 6 24 c3 13 3 29 -1 34 -4 7 -57 11 -143 10 -127 -1 -135 -2 -105
-15z"/>
<path d="M4160 740 c0 -5 11 -10 25 -10 l26 0 -3 -92 c-3 -84 -5 -93 -23 -96
-53 -10 -24 -17 70 -17 56 0 101 3 98 8 -2 4 -11 7 -19 7 -10 0 -14 12 -14 45
0 25 4 45 9 45 18 0 40 -31 51 -68 10 -37 10 -37 65 -38 30 0 55 0 55 2 0 1
-25 27 -55 58 -53 53 -55 57 -41 78 21 34 5 65 -41 77 -49 14 -203 14 -203 1z
m202 -27 c10 -9 18 -27 18 -40 0 -19 -5 -23 -30 -23 -28 0 -30 2 -30 40 0 43
12 50 42 23z"/>
</g>
</svg>
